Coordinates
version=1
nRows=17
nColumns=36
inDegrees=yes

Units are S.I. units (second, meters, Newtons, ...)
If the header above contains a line with 'inDegrees', this indicates whether rotational values are in degrees (yes) or radians (no).

endheader
time	pelvis_tilt	pelvis_list	pelvis_rotation	pelvis_tx	pelvis_ty	pelvis_tz	hip_flexion_r	hip_adduction_r	hip_rotation_r	knee_angle_r	knee_angle_r_beta	ankle_angle_r	subtalar_angle_r	mtp_angle_r	hip_flexion_l	hip_adduction_l	hip_rotation_l	knee_angle_l	knee_angle_l_beta	ankle_angle_l	subtalar_angle_l	mtp_angle_l	lumbar_extension	lumbar_bending	lumbar_rotation	arm_flex_r	arm_add_r	arm_rot_r	elbow_flex_r	pro_sup_r	arm_flex_l	arm_add_l	arm_rot_l	elbow_flex_l	pro_sup_l
      3.88333330	     -0.81534493	     18.04155447	      9.47048124	      0.87778927	      0.79224945	      0.00781249	     68.95977237	    -20.72804487	     19.74414251	     34.16716321	      0.59632949	     -8.30957275	      6.77412948	     -7.49999987	     47.34585494	     25.30664517	     -9.50458595	     73.63319310	      1.28514166	     26.27178532	    -10.42396995	     -7.49999987	    -31.66577749	    -16.31863526	    -10.12288109	     61.67284017	      9.86090039	     62.79214784	    109.80552220	     88.95908354	     61.06345091	     -2.72467013	     60.93418713	    123.80922693	     85.94247316
      3.90000000	     -1.18110364	     18.34058457	      9.61971267	      0.87739785	      0.79211908	      0.00755663	     69.45870228	    -20.93233794	     19.93077419	     34.13659643	      0.59579600	     -8.29669344	      7.06512818	     -7.49999987	     47.75806385	     25.59847569	     -9.75472391	     73.77865834	      1.28768051	     26.20176228	    -10.49232497	     -7.49999987	    -31.74719812	    -16.47990439	    -10.24492312	     61.72199154	      9.80653884	     62.92049143	    109.23500006	     87.48960852	     60.99542682	     -2.83491757	     61.23715968	    123.73401400	     84.68452006
      3.91666670	     -1.59568262	     18.59408510	      9.74727319	      0.87783195	      0.79153113	      0.00797756	     69.92452578	    -21.06764881	     20.13185571	     34.04253618	      0.59415434	     -8.20054245	      7.38577913	     -7.49999987	     48.16514133	     25.80200424	    -10.01669061	     73.82840986	      1.28854883	     26.16655293	    -10.42316049	     -7.49999987	    -31.76317269	    -16.66338364	    -10.28028957	     61.90909582	      9.67627289	     63.33434701	    109.29956413	     85.18421934	     60.82555868	     -2.82747120	     61.38301614	    123.97128596	     82.61888932
      3.93333330	     -2.24128690	     18.80508175	     10.01926212	      0.87765673	      0.78654151	      0.00759457	     70.78284405	    -21.20816889	     20.36422850	     34.12268665	      0.59555323	     -8.15933819	      7.70704470	     -7.49999987	     48.97852461	     25.96921499	    -10.35076406	     74.01916905	      1.29187821	     26.10286729	    -10.42247296	     -7.49999987	    -31.16986016	    -16.91421027	    -10.50067923	     61.65549095	     10.17867478	     62.62751093	    109.15280212	     91.74747891	     60.74921174	     -2.59693951	     60.50952505	    123.96781977	     89.04195637
      3.95000000	     -2.37999605	     19.06130528	     10.16542038	      0.87794811	      0.78861684	      0.00817605	     71.04435370	    -21.38906074	     20.53579183	     34.13438118	      0.59575734	     -7.91544233	      8.01683940	     -7.49999987	     49.19111666	     26.20051309	    -10.51443440	     74.10195007	      1.29332301	     25.92179579	    -10.70097010	     -7.49999987	    -31.28506279	    -17.12944379	    -10.65252635	     61.39515421	     10.26771359	     63.04625113	    109.28146183	     86.86777409	     60.69344355	     -2.80845916	     61.02396721	    124.23599320	     84.68016541
      3.96666670	     -2.81315930	     19.09150488	     10.29800094	      0.87777464	      0.78831201	      0.00780199	     71.50164995	    -21.36476202	     20.60101872	     34.15373860	      0.59609519	     -7.77958693	      8.16572381	     -7.49999987	     49.64437213	     26.23254870	    -10.60702466	     74.25204794	      1.29594271	     26.08349787	    -10.55370410	     -7.49999987	    -30.95518719	    -17.18084353	    -10.76313631	     61.04532284	     10.47687136	     62.96008543	    109.36983609	     91.93082016	     60.40988090	     -2.89950940	     60.36935855	    124.37462602	     89.82693453
      3.98333330	     -3.03779488	     19.16643624	     10.45191641	      0.87409833	      0.78698039	      0.00526527	     71.81449000	    -21.47917333	     20.57851564	     34.27908547	      0.59828291	     -7.75355116	      8.33579539	     -7.49999987	     49.92349537	     26.33280935	    -10.71637033	     74.36921895	      1.29798773	     26.08016305	    -10.57591954	     -7.49999987	    -30.96819531	    -17.13030229	    -10.85514514	     61.44973057	     10.09549008	     63.20095548	    109.90696055	     91.94384795	     60.58437121	     -2.61479170	     60.22410293	    124.27635393	     89.85788876
      4.00000000	     -3.02870253	     19.18999622	     10.42569505	      0.87798721	      0.78601481	      0.00761450	     71.77194268	    -21.46769606	     20.56129023	     34.31125266	      0.59884433	     -7.77231927	      8.35230082	     -7.49999987	     49.88601934	     26.35584166	    -10.71832213	     74.38822443	      1.29831944	     26.09910458	    -10.59262108	     -7.49999987	    -30.83945521	    -17.13080190	    -10.86357192	     61.47774105	     10.10920934	     63.17992697	    109.92911860	     91.94306511	     60.58137216	     -2.55473885	     60.23192302	    124.30100000	     89.86091686
      4.01666670	     -3.34123659	     19.13686685	     10.51491807	      0.87875483	      0.78758065	      0.00813364	     72.02214920	    -21.45485841	     20.46017173	     34.35935424	      0.59968386	     -7.73132759	      8.64558947	     -7.49999987	     50.12122551	     26.38377140	    -10.65373649	     74.35647333	      1.29776528	     26.36820429	    -10.58142738	     -7.49999987	    -30.40712180	    -17.26380006	    -10.56399844	     61.23634902	      9.94917827	     63.15983886	    110.30947736	     92.34040140	     60.35760766	     -2.19584084	     60.64064198	    124.17728902	     91.00391056
      4.03333330	     -3.12826948	     18.90050722	     10.55012326	      0.87803098	      0.78835930	      0.00774790	     71.57387477	    -21.42771821	     20.15538993	     34.16913427	      0.59636390	     -8.07543336	      8.25877367	     -7.49999987	     49.75963044	     26.25592759	    -10.31408537	     74.33064073	      1.29731442	     26.72351236	    -10.05751442	     -7.49999987	    -30.57767250	    -16.95825922	    -10.40853304	     61.49652990	      9.73476166	     63.71272006	    110.88035055	     85.92441744	     60.62646642	     -1.57556926	     61.16909036	    124.18742573	     84.83256509
      4.05000000	     -3.47490779	     19.14155141	     10.62006903	      0.87881092	      0.79004660	      0.00826733	     71.90674602	    -21.53539531	     20.24655041	     34.11180253	      0.59536327	     -7.68698772	      8.99960549	     -7.49999987	     49.96510827	     26.51042786	    -10.44861447	     74.03524190	      1.29215873	     26.27982051	    -10.74486952	     -7.49999987	    -30.13566559	    -17.31327147	    -10.71731830	     61.15364780	     10.14829632	     63.42404258	    110.21462345	     92.50457686	     60.43815288	     -2.31460952	     61.56211667	    124.06866597	     90.89819588
      4.06666670	     -3.53960718	     19.16793258	     10.69837054	      0.87442717	      0.79155585	      0.00489600	     71.83525944	    -21.62808061	     20.05636839	     33.93583122	      0.59229199	     -7.72214805	      9.16270891	     -7.49999987	     49.90043580	     26.59839984	    -10.38445354	     73.81207148	      1.28826368	     26.20012016	    -10.73867782	     -7.49999987	    -29.98410719	    -17.22227871	    -10.75346111	     61.32279066	      9.90620866	     63.46992964	    110.29279679	     92.49934657	     60.60920196	     -2.50282295	     61.46926869	    123.90327332	     90.89249699
      4.08333330	     -3.47550651	     19.10831052	     10.70596455	      0.87947467	      0.79494173	      0.00817412	     71.54374977	    -21.65708218	     19.78009722	     33.70467409	      0.58825754	     -7.61159701	      9.51327770	     -7.49999987	     49.58372146	     26.64489144	    -10.15225780	     73.52953612	      1.28333250	     26.21561661	    -10.81344859	     -7.49999987	    -29.88931029	    -17.24660377	    -10.75441751	     60.91632458	      9.93785068	     63.78451527	    110.39456355	     92.50198927	     60.36382357	     -2.60814892	     61.51617303	    123.81550452	     90.88567297
      4.10000000	     -3.20474429	     19.02988274	     10.70443986	      0.87513600	      0.80118148	      0.00522444	     70.99825602	    -21.75913834	     19.33510816	     33.44305282	      0.58369138	     -7.44847514	     10.04250641	     -7.49999987	     49.04473961	     26.71810112	     -9.84315615	     73.15121511	      1.27672956	     26.02512188	    -11.03192028	     -7.49999987	    -30.16276862	    -16.97744724	    -10.81215135	     60.97614541	      9.52583281	     64.03675520	    110.09635606	     92.47881699	     60.10068667	     -2.52419762	     60.89566246	    123.10612367	     90.81910132
      4.11666670	     -3.22221771	     19.01978659	     10.68041902	      0.87996971	      0.80183042	      0.00848967	     70.70161655	    -21.72304060	     19.19343775	     33.13341601	      0.57828720	     -7.36905067	     10.12274901	     -7.49999987	     48.67332911	     26.77339884	     -9.63890733	     72.67399340	      1.26840047	     26.05465342	    -11.01966863	     -7.49999987	    -29.83107719	    -17.09203641	    -10.54418756	     60.70792816	      9.90509803	     63.99539018	    110.22410859	     92.48789061	     59.96595109	     -2.43421986	     60.88116617	    123.44331485	     90.81850759
      4.13333330	     -3.10939582	     18.87975077	     10.53979632	      0.87972402	      0.80262961	      0.00819268	     70.36050301	    -21.53910519	     19.05032876	     33.03485820	      0.57656704	     -7.23623015	     10.28860807	     -7.49999987	     48.28838335	     26.68329426	     -9.41289651	     72.41105667	      1.26381135	     26.10433393	    -11.00223730	     -7.49999987	    -29.60217004	    -16.83746633	    -10.67926854	     60.43594992	     10.70231425	     63.73000793	    110.05977512	     92.24837063	     59.20418631	     -2.69624263	     59.96137164	    124.97773479	     90.02314045
      4.15000000	     -2.81128628	     18.77858634	     10.40947388	      0.87986300	      0.80798566	      0.00849135	     69.67838164	    -21.46449349	     18.83607357	     32.79985663	      0.57246549	     -7.10832704	     10.36878429	     -7.49999987	     47.52932184	     26.63253471	     -9.11039887	     71.91345144	      1.25512650	     26.09099286	    -11.09779454	     -7.49999987	    -29.73078464	    -16.83437576	    -10.27628991	     60.13990619	     10.53605178	     63.42881856	    110.60825516	     93.20941502	     59.49834039	     -2.44586667	     60.07876755	    125.08499242	     91.68094273
